<svg width="910" height="512" viewBox="0 0 910 512" fill="none" xmlns="http://www.w3.org/2000/svg">
<path opacity="0.1" d="M96.2567 254.293C64.5031 426.24 237.062 562.916 398.01 438.376C679.574 220.539 540.19 306.441 691.375 331.852C842.56 357.262 856.115 103.633 734.74 106.904C613.366 110.175 576.067 211.247 449.242 118.139C322.418 25.0311 122.75 111.028 96.2567 254.293Z" fill="black"/>
<path d="M425.355 512C533.43 512 621.042 424.362 621.042 316.255C621.042 208.148 533.43 120.51 425.355 120.51C317.28 120.51 229.668 208.148 229.668 316.255C229.668 424.362 317.28 512 425.355 512Z" fill="black"/>
<path d="M208.198 273.683C224.322 273.683 237.393 260.608 237.393 244.48C237.393 228.352 224.322 215.277 208.198 215.277C192.075 215.277 179.004 228.352 179.004 244.48C179.004 260.608 192.075 273.683 208.198 273.683Z" fill="#959595"/>
<path d="M226.444 191.953C234.977 191.953 241.895 185.033 241.895 176.498C241.895 167.962 234.977 161.043 226.444 161.043C217.911 161.043 210.994 167.962 210.994 176.498C210.994 185.033 217.911 191.953 226.444 191.953Z" fill="#959595"/>
<path d="M257.392 227.461C260.219 227.461 262.51 225.168 262.51 222.341C262.51 219.513 260.219 217.221 257.392 217.221C254.565 217.221 252.273 219.513 252.273 222.341C252.273 225.168 254.565 227.461 257.392 227.461Z" fill="#959595"/>
<mask id="mask0_214_1177" style="mask-type:luminance" maskUnits="userSpaceOnUse" x="229" y="21" width="476" height="491">
<path d="M621.042 316.255C621.042 424.344 533.412 512 425.355 512C317.298 512 229.715 424.344 229.715 316.255C229.715 208.166 304.217 21.3333 412.274 21.3333C492.464 21.3333 669.43 23.277 703.364 120.51C715.165 154.359 621.042 288.379 621.042 316.255V316.255Z" fill="white"/>
</mask>
<g mask="url(#mask0_214_1177)">
<path d="M344.454 125.582C344.454 125.582 339.526 85.9022 351.943 67.7926C368.151 44.2311 414.123 37.6415 436.066 50.6311C460.331 64.9956 479.668 102.068 471.184 134.542C507.251 144.924 515.876 185.932 490.521 196.456L512.227 242.963C525.734 271.881 511.943 306.442 480.947 321.375L425.45 348.113C425.45 348.113 323.033 364.231 302.748 316.776C282.464 269.322 322.18 234.714 322.18 234.714C322.18 234.714 289.762 198.684 305.213 163.556C320.71 128.427 344.454 125.582 344.454 125.582Z" fill="#959595"/>
<path d="M501.943 261.547C501.943 261.547 595.024 276.29 620.237 275.2C640 276.29 672.559 168.059 675.403 161.422C691.185 151.514 695.119 137.956 694.882 130.465C694.645 122.975 674.503 116.67 672.559 120.462C675.877 110.554 676.635 107.425 677.536 104.012C679.431 96.9481 674.029 91.5911 666.303 118.187C658.673 144.403 659.431 140.089 657.583 149.333C645.119 173.274 612.986 229.12 610.806 237.558C569.147 236.563 498.578 220.35 498.578 220.35L501.943 261.547ZM315.545 236.278C315.545 236.278 271.422 319.099 262.844 342.234C254.313 359.443 342.939 438.708 347.915 444.444C350.995 463.265 359.147 469.76 366.067 473.126C372.986 476.444 386.398 461.416 383.697 457.908C391.517 465.588 394.076 467.721 396.825 470.187C402.559 475.212 409.526 472.936 388.152 453.404C367.062 434.11 370.758 436.859 362.986 430.791C345.83 408.273 306.967 352.996 300.095 347.022C316.825 310.187 358.531 254.578 358.531 254.578L315.545 236.278Z" fill="#FFE3CA"/>
<path d="M416.635 512L442.369 400.308L486.208 426.572C486.208 426.572 489.763 458.714 494.313 500.385C494.313 500.385 460 512.806 416.635 512Z" fill="#959595"/>
<path d="M460.854 508.587C467.868 466.204 473.461 432.071 473.461 432.071C473.461 432.071 353.508 415.384 353.082 448.19C352.94 458.24 354.124 477.582 356.921 499.674C420.001 519.964 460.854 508.587 460.854 508.587Z" fill="black"/>
<path d="M461.753 292.551C458.199 300.8 485.166 415.336 489.668 441.742C489.668 441.742 489.099 441.647 488.009 441.458C476.303 439.704 404.692 430.27 346.824 454.4L341.516 292.599L341.279 286.578C341.279 286.578 341.279 280.462 341.848 271.123V271.028C343.175 251.781 347.156 219.307 359.526 198.447C365.924 187.639 374.407 179.911 386.019 178.773C421.99 175.218 421.801 189.961 455.213 198.21L509.431 211.674C509.431 211.674 503.365 253.724 509.431 266.24H471.801C471.801 266.193 465.26 284.207 461.753 292.551Z" fill="#959595"/>
<path d="M441.091 70.8267C441.091 70.8267 474.076 120.32 456.778 144.498C443.839 162.607 422.133 172.089 422.133 172.089V198.163C422.133 198.163 419.527 200.486 414.977 200.723C407.062 201.15 386.02 188.444 386.02 188.444V85.76L441.091 70.8267Z" fill="#FFE3CA"/>
<path d="M341.422 299.236C341.422 299.236 391.185 241.541 383.27 213.76C375.356 185.979 337.725 195.508 316.683 227.508C295.64 259.508 287.299 270.459 287.299 270.459C287.299 270.459 308.958 299.757 341.422 299.236Z" fill="#959595"/>
<path d="M440.994 66.1333C440.994 66.1333 443.554 117.665 418.72 130.133C393.885 142.601 412.653 173.321 389.004 196.267C381.99 203.046 371.563 201.908 363.554 199.538C352.084 196.124 338.957 198.59 330.947 206.886C330.189 207.692 329.478 208.545 328.909 209.399C298.198 189.108 376.018 76.3259 376.018 76.3259L440.994 66.1333Z" fill="#959595"/>
</g>
<path d="M531.184 347.876C520.426 364.516 514.17 384.332 514.17 405.618C514.17 464.356 561.8 512 620.521 512C679.241 512 726.871 464.356 726.871 405.618C726.871 346.88 679.241 299.236 620.521 299.236C594.596 299.236 570.805 308.527 552.369 323.982L516.303 314.453L531.184 347.876ZM656.018 29.203C656.018 45.3215 642.938 66.1333 626.824 66.1333C610.71 66.1333 597.63 45.3215 597.63 29.203C597.63 13.0844 610.663 0 626.824 0C642.985 0 656.018 13.0844 656.018 29.203Z" fill="#959595"/>
<path d="M627.725 79.36C624.739 79.36 621.943 77.2741 619.478 73.1496C617.725 70.2104 619.052 61.3452 620.474 51.9585C620.853 49.4933 621.184 47.0756 621.516 44.8948C619.431 38.4 619.905 34.1807 620.805 32.9481C621.137 32.4741 621.611 32.3319 622.038 32.5215C622.891 32.9481 623.365 34.7496 623.365 37.6415C623.365 39.5378 623.128 41.9556 622.796 44.6578C622.938 45.1319 623.128 45.6059 623.317 46.1274C625.023 50.6785 626.729 49.683 627.298 49.3037C628.673 48.4978 630 46.2222 630.995 43.6148C630.616 37.7363 631.042 33.517 631.706 32.2844C632.038 31.6207 632.464 31.5733 632.654 31.5733C633.317 31.6207 633.649 32.5215 633.744 32.8059C634.597 35.0815 633.838 39.8696 632.274 43.9467C632.748 50.8207 634.36 60.2548 638.341 70.163L638.53 70.5896L638.293 70.9689C638.104 71.3007 633.696 79.123 627.867 79.2178C627.82 79.36 627.772 79.36 627.725 79.36ZM622.369 47.4074C622.132 48.9719 621.895 50.5837 621.658 52.243C620.426 60.4919 619.004 69.7837 620.426 72.1541C622.701 75.8993 625.165 77.7956 627.772 77.7481C632.274 77.6533 636.019 72.0593 636.966 70.5422C633.507 61.8193 631.801 53.2859 631.137 46.4593C630.142 48.4504 628.957 50.0622 627.725 50.7733C626.587 51.5319 624.312 52.0059 622.369 47.4074ZM621.611 34.1333C621.279 34.7496 620.853 37.2622 621.848 41.5763C621.99 40.1067 622.085 38.7793 622.085 37.6889C622.085 35.4607 621.753 34.4652 621.611 34.1333ZM632.559 33.5644C632.274 34.5126 631.99 36.883 632.038 40.2963C632.796 37.5467 633.08 34.8919 632.559 33.5644Z" fill="black"/>
<path d="M626.823 83.3422C620.946 83.3422 616.065 78.8859 615.591 73.0548L614.596 61.8667L617.581 63.0044C623.695 65.3274 630.425 65.28 636.491 62.8622L639.003 61.8667L638.008 73.0548C637.534 78.8859 632.653 83.3422 626.823 83.3422Z" fill="#959595"/>
<path d="M747.534 85.0015C744.121 93.1081 733.126 100.836 725.022 97.4222C716.918 94.0089 714.738 80.7822 718.15 72.6281C721.562 64.5215 730.899 60.6815 739.05 64.0948C747.202 67.5081 750.946 76.8474 747.534 85.0015Z" fill="#959595"/>
<path d="M722.652 104.249C721.136 103.633 720.188 101.973 719.809 99.3659C719.524 97.517 722.084 93.3452 724.785 88.9363C725.496 87.7985 726.159 86.6608 726.776 85.6178C727.107 81.92 728.245 79.8815 728.956 79.4548C729.24 79.2652 729.477 79.3126 729.667 79.5022C729.998 79.8815 729.856 80.9245 729.24 82.3467C728.861 83.2948 728.197 84.48 727.439 85.76C727.439 86.0445 727.392 86.3289 727.392 86.6133C727.297 89.2682 728.34 89.1259 728.719 89.0785C729.572 88.9363 730.709 88.083 731.799 86.9926C732.842 83.9585 733.979 81.92 734.548 81.4459C734.832 81.2089 735.069 81.2563 735.164 81.3037C735.496 81.4933 735.449 81.9674 735.449 82.157C735.401 83.4845 733.979 85.7126 732.321 87.4667C731.088 91.0222 729.904 96.0948 729.856 101.926V102.163L729.667 102.305C729.524 102.447 725.638 105.434 722.7 104.249H722.652ZM726.728 87.04C726.302 87.7985 725.828 88.557 725.354 89.3156C722.984 93.203 720.33 97.6119 720.52 99.0815C720.851 101.452 721.704 102.921 723.032 103.443C725.306 104.344 728.387 102.305 729.193 101.736C729.287 96.6163 730.235 91.9704 731.373 88.3674C730.472 89.1733 729.524 89.6948 728.766 89.837C727.96 89.9793 726.728 89.7422 726.728 87.04ZM729.145 80.1659C728.861 80.403 728.103 81.5882 727.723 83.9585C728.103 83.2474 728.434 82.5837 728.671 82.0622C729.098 80.9719 729.193 80.403 729.145 80.1659ZM734.785 82.2045C734.453 82.6311 733.79 83.7689 733.126 85.4756C734.074 84.2904 734.785 83.0104 734.785 82.2045Z" fill="black"/>
<path d="M721.374 106.05C718.436 104.818 716.919 101.547 717.867 98.5126L719.763 92.6815L721.043 93.8666C723.602 96.3318 727.014 97.7066 730.569 97.8015L732.038 97.8489L729.194 103.253C727.725 106.098 724.313 107.283 721.374 106.05Z" fill="#959595"/>
<path d="M633.933 131.366C634.502 137.908 630 146.821 623.46 147.39C616.919 147.959 610.853 140.042 610.284 133.499C609.715 126.957 614.502 121.173 621.042 120.604C627.583 120.036 633.317 124.824 633.933 131.366Z" fill="#959595"/>
<path d="M624.265 152.699C623.033 152.794 621.848 152.083 620.711 150.471C619.905 149.333 620.095 145.683 620.332 141.843C620.379 140.847 620.426 139.852 620.474 138.951C619.384 136.391 619.431 134.684 619.763 134.163C619.905 133.973 620.047 133.879 620.237 133.926C620.616 134.068 620.853 134.779 620.948 135.964C620.995 136.723 620.995 137.719 620.948 138.856L621.232 139.425C622.085 141.227 622.749 140.753 622.938 140.563C623.46 140.184 623.934 139.236 624.218 138.145C623.839 135.775 623.886 134.068 624.076 133.547C624.171 133.262 624.36 133.215 624.455 133.215C624.739 133.215 624.881 133.547 624.929 133.689C625.355 134.59 625.213 136.533 624.739 138.287C625.166 141.037 626.161 144.83 628.152 148.67L628.246 148.859L628.152 149.049C628.104 149.191 626.588 152.51 624.218 152.794C624.313 152.699 624.313 152.699 624.265 152.699ZM620.948 139.947C620.9 140.563 620.853 141.274 620.853 141.938C620.663 145.304 620.426 149.144 621.09 150.044C622.133 151.467 623.223 152.178 624.265 152.036C626.066 151.846 627.393 149.428 627.725 148.764C626.019 145.351 625.024 141.938 624.455 139.188C624.123 140.042 623.697 140.705 623.223 141.084C622.796 141.464 621.896 141.748 620.948 139.947ZM620.142 134.59C620 134.874 619.953 135.917 620.521 137.576C620.521 136.96 620.521 136.439 620.474 136.012C620.379 135.111 620.237 134.732 620.142 134.59ZM624.597 133.973C624.502 134.353 624.502 135.348 624.645 136.723C624.834 135.585 624.834 134.495 624.597 133.973Z" fill="black"/>
<path d="M624.074 154.359C621.705 154.596 619.572 152.936 619.146 150.613L618.34 146.11L619.572 146.441C622.131 147.153 624.88 146.868 627.25 145.683L628.245 145.161V149.713C628.245 152.178 626.444 154.169 624.074 154.359Z" fill="#959595"/>
</svg>
